<svg xmlns="http://www.w3.org/2000/svg" width="30" height="30" viewBox="0 0 30 30" fill="none">
  <path d="M21.4696 1.22859C22.3053 0.704758 23.3412 0.828392 23.8598 1.25085C24.0843 1.43425 24.3039 1.74656 24.0724 2.19422C23.5864 3.13875 22.5511 3.74872 21.4364 3.74872H18.245C18.3951 4.112 18.4783 4.50634 18.4783 4.91884C18.4783 5.28622 18.412 5.63954 18.2919 5.96943H25.7977C26.2981 5.0788 26.3344 4.05633 25.8884 3.11942L24.9738 1.19636C24.8669 0.973705 24.703 0.766282 24.4803 0.58464C23.7034 -0.0470029 22.2021 -0.293098 20.9448 0.494406L17.4981 2.65594C17.717 2.86805 17.9059 3.10711 18.0573 3.36786L21.4696 1.22859ZM11.71 5.96884C11.5866 5.63063 11.5236 5.27567 11.5236 4.91825C11.5236 4.50575 11.6068 4.11141 11.7569 3.74813H8.56732C7.45262 3.74813 6.41736 3.13758 5.92881 2.19305C5.69737 1.74597 5.91693 1.43367 6.14212 1.25085C6.42111 1.02351 6.8496 0.882884 7.31625 0.882884C7.71722 0.882884 8.14571 0.986595 8.53166 1.22859L11.9433 3.36786C12.0947 3.10653 12.2842 2.86746 12.5026 2.65594L9.05586 0.494406C7.79854 -0.293098 6.29725 -0.0470029 5.52222 0.58464C5.27388 0.78679 5.09748 1.02058 4.99364 1.27253L4.11351 3.11883C3.66688 4.05575 3.70316 5.07821 4.20422 5.96884H11.71ZM12.7277 5.96884H17.2723C17.4399 5.65185 17.535 5.29501 17.535 4.91825C17.535 3.60985 16.3965 2.54344 14.9997 2.54344C13.6029 2.54344 12.4644 3.60985 12.4644 4.91825C12.465 5.2956 12.5601 5.65185 12.7277 5.96884ZM0 8.70987V11.6132C0 12.4857 0.645551 13.2193 1.51192 13.4179H13.2526V6.85127H1.98357C0.890135 6.85127 0 7.68506 0 8.70987ZM1.51254 27.5338C1.51254 28.8937 2.69355 30 4.14542 30H13.2532V14.2997H1.51254V27.5338ZM28.0171 6.85127H16.7493V13.4173H28.4881C29.3551 13.2187 30 12.4851 30 11.6126V8.70928C30.0006 7.68506 29.1105 6.85127 28.0171 6.85127ZM16.7493 30H25.8552C27.3071 30 28.4881 28.8937 28.4881 27.5338V14.2997H16.7493V30Z" fill="white"/>
</svg>