<svg xmlns="http://www.w3.org/2000/svg" width="30" height="30" viewBox="0 0 30 30" fill="none">
  <path d="M29.3398 13.1132L27.3143 10.7379C26.9392 10.2869 26.6241 9.44502 26.6241 8.84366V6.2879C26.6241 4.69431 25.3188 3.38636 23.7284 3.38636H21.1778C20.5776 3.38636 19.7224 3.07067 19.2723 2.69481L16.9017 0.665237C15.8665 -0.221745 14.1711 -0.221745 13.1358 0.665237L10.7351 2.69481C10.285 3.07067 9.44483 3.38636 8.84468 3.38636H6.24904C4.65865 3.38636 3.35333 4.69431 3.35333 6.2879V8.84366C3.35333 9.42998 3.05325 10.2719 2.67816 10.7229L0.652661 13.1132C-0.217554 14.1656 -0.217554 15.8494 0.652661 16.8717L2.67816 19.2621C3.05325 19.6981 3.35333 20.555 3.35333 21.1413V23.7121C3.35333 25.3057 4.65865 26.6136 6.24904 26.6136H8.85968C9.44483 26.6136 10.3 26.9293 10.7501 27.3052L13.1208 29.3348C14.156 30.2217 15.8515 30.2217 16.8867 29.3348L19.2573 27.3052C19.7074 26.9293 20.5476 26.6136 21.1478 26.6136H23.6984C25.2888 26.6136 26.5941 25.3057 26.5941 23.7121V21.1563C26.5941 20.555 26.9092 19.7131 27.2843 19.2621L29.3098 16.8867C30.225 15.8644 30.225 14.1656 29.3398 13.1132ZM13.871 9.18944C13.871 8.57306 14.3811 8.0619 14.9963 8.0619C15.6114 8.0619 16.1215 8.57306 16.1215 9.18944V16.4507C16.1215 17.0671 15.6114 17.5783 14.9963 17.5783C14.3811 17.5783 13.871 17.0671 13.871 16.4507V9.18944ZM14.9963 22.329C14.1711 22.329 13.4959 21.6525 13.4959 20.8256C13.4959 19.9987 14.156 19.3222 14.9963 19.3222C15.8215 19.3222 16.4966 19.9987 16.4966 20.8256C16.4966 21.6525 15.8365 22.329 14.9963 22.329Z" fill="white"/>
</svg>