<svg xmlns="http://www.w3.org/2000/svg" width="30" height="40" viewBox="0 0 30 40" fill="none">
  <path d="M11.2963 16.2661L3.58072 8.45288C1.55802 10.8403 0.250657 13.8665 0 17.1875H10.9185C11.0085 16.8665 11.1353 16.5572 11.2963 16.2661ZM11.2963 20.4526C11.1353 20.1615 11.0085 19.8523 10.9185 19.5312H0C0.250657 22.8523 1.55802 25.8784 3.58064 28.2659L11.2963 20.4526ZM5.21728 29.9232C7.57487 31.9715 10.5632 33.2953 13.8428 33.5491V22.4925C13.5258 22.4014 13.2204 22.273 12.9329 22.1099L5.21728 29.9232ZM19.0815 17.1875H30C29.7493 13.8664 28.442 10.8403 26.4194 8.45288L18.7037 16.2661C18.8647 16.5572 18.9915 16.8665 19.0815 17.1875ZM18.7037 20.4526L26.4193 28.2659C28.442 25.8784 29.7493 22.8523 30 19.5312H19.0815C18.9915 19.8523 18.8647 20.1615 18.7037 20.4526Z" fill="white"/>
  <path d="M15 20.3125C16.0652 20.3125 16.9287 19.4381 16.9287 18.3594C16.9287 17.2807 16.0652 16.4062 15 16.4062C13.9348 16.4062 13.0713 17.2807 13.0713 18.3594C13.0713 19.4381 13.9348 20.3125 15 20.3125Z" fill="white"/>
  <path d="M17.0672 22.1099C16.7797 22.273 16.4743 22.4014 16.1573 22.4925V33.5491C19.4369 33.2953 22.4252 31.9714 24.7828 29.9232L17.0672 22.1099ZM13.8429 14.2262V8.68828C13.3948 8.52792 12.984 8.27608 12.6359 7.94838C12.2879 7.62068 12.01 7.2241 11.8195 6.7832L10.5352 3.81047C8.55746 4.43437 6.75349 5.46102 5.21737 6.79555L12.933 14.6088C13.2205 14.4457 13.5259 14.3174 13.8429 14.2262ZM16.1573 8.68828V14.2262C16.4743 14.3174 16.7797 14.4458 17.0672 14.6088L24.7829 6.79563C23.2468 5.46109 21.4428 4.43445 19.4651 3.81055L18.1808 6.78328C17.9902 7.22416 17.7123 7.62072 17.3643 7.9484C17.0162 8.27608 16.6054 8.52791 16.1573 8.68828ZM13.9399 5.84383C14.3444 6.78008 15.6559 6.78008 16.0604 5.84383L17.8759 1.64156C18.2103 0.867344 17.6502 0 16.8156 0H13.1846C12.3501 0 11.7899 0.867344 12.1244 1.64156L13.9399 5.84383ZM27.3439 37.6562H24.208L22.5341 34.1983C21.8371 34.5401 21.1179 34.8334 20.3815 35.0764L21.6304 37.6562H8.36976L9.61857 35.0765C8.88225 34.8335 8.16308 34.5401 7.46603 34.1984L5.79221 37.6562H2.65626C2.01716 37.6562 1.49902 38.1809 1.49902 38.8281C1.49902 39.4753 2.01716 40 2.65626 40H27.3439C27.983 40 28.5012 39.4753 28.5012 38.8281C28.5012 38.1809 27.983 37.6562 27.3439 37.6562Z" fill="white"/>
</svg>