<svg xmlns="http://www.w3.org/2000/svg" width="30" height="30" viewBox="0 0 30 30" fill="none">
  <path d="M11.4188 6.84898L11.0742 8.85289C11.0281 9.12224 11.0582 9.39912 11.1612 9.65223C11.2642 9.90535 11.436 10.1246 11.6571 10.2852C11.8782 10.4458 12.1398 10.5414 12.4123 10.5611C12.6849 10.5809 12.9575 10.5239 13.1994 10.3968L15 9.45114L16.7994 10.3968C17.0414 10.5243 17.3141 10.5814 17.5869 10.5619C17.8596 10.5423 18.1215 10.4468 18.3427 10.2861C18.564 10.1255 18.7359 9.90606 18.8389 9.65277C18.942 9.39948 18.9721 9.1224 18.9258 8.85289L18.5824 6.84898L20.0391 5.43043C20.2355 5.23955 20.3745 4.99743 20.4402 4.73155C20.506 4.46567 20.4959 4.18668 20.4111 3.92625C20.3262 3.66583 20.1701 3.43439 19.9604 3.25823C19.7507 3.08207 19.4958 2.96823 19.2246 2.92964L17.2131 2.63667L16.3137 0.816745C16.1927 0.57159 16.0056 0.365169 15.7734 0.220832C15.5413 0.0764947 15.2734 0 15 0C14.7266 0 14.4587 0.0764947 14.2266 0.220832C13.9944 0.365169 13.8073 0.57159 13.6863 0.816745L12.7869 2.6396L10.7748 2.93257C10.5043 2.97166 10.2501 3.08566 10.041 3.26167C9.83191 3.43768 9.67622 3.66868 9.59155 3.92855C9.50687 4.18842 9.49659 4.4668 9.56187 4.73221C9.62715 4.99762 9.76538 5.23948 9.96094 5.43043L11.4188 6.84898ZM17.3438 12.4218H12.6562C12.1123 12.4218 11.5907 12.6379 11.2061 13.0225C10.8215 13.4071 10.6055 13.9287 10.6055 14.4726V24.7266H19.3945V14.4726C19.3945 13.9287 19.1785 13.4071 18.7939 13.0225C18.4093 12.6379 17.8877 12.4218 17.3438 12.4218ZM0 26.4844V28.5352C0 28.9237 0.154331 29.2962 0.429043 29.571C0.703754 29.8457 1.07634 30 1.46484 30H28.5352C28.9237 30 29.2962 29.8457 29.571 29.571C29.8457 29.2962 30 28.9237 30 28.5352V26.4844H0ZM26.4258 18.5742C26.4258 18.0303 26.2097 17.5087 25.8251 17.1241C25.4405 16.7395 24.9189 16.5234 24.375 16.5234H21.1523V24.7266H26.4258V18.5742ZM8.84766 19.4531H5.625C5.0811 19.4531 4.55947 19.6692 4.17488 20.0538C3.79028 20.4384 3.57422 20.96 3.57422 21.5039V24.7266H8.84766V19.4531Z" fill="white"/>
</svg>