<svg xmlns="http://www.w3.org/2000/svg" width="40" height="40" viewBox="0 0 40 40" fill="none">
  <g clip-path="url(#clip0_410_5041)">
    <path d="M36.8751 20C36.8751 21.2813 39.8813 22.5375 39.6501 23.75C38.8051 28.1801 36.4855 32.1937 33.0688 35.1375C32.3376 35.7719 29.5688 33.8525 28.7501 34.375C27.457 35.2006 28.0551 38.3806 26.5813 38.8938C22.3178 40.3688 17.6824 40.3688 13.4188 38.8938C11.9895 38.3938 12.5101 35.1675 11.2501 34.375C10.3895 33.8338 7.69759 35.8025 6.93134 35.1375C3.51471 32.1937 1.1951 28.1801 0.350091 23.75C0.118841 22.5375 3.12509 21.2813 3.12509 20C3.12509 18.7188 0.118841 17.4625 0.350091 16.25C1.1951 11.82 3.51471 7.80634 6.93134 4.86251C7.88072 4.03876 9.37509 6.87501 11.8751 5.62501C13.8907 4.61689 12.2226 1.52251 13.4188 1.10626C17.6824 -0.368754 22.3178 -0.368754 26.5813 1.10626C27.7776 1.52251 27.6707 5.00001 28.7501 5.62501C29.8426 6.25751 32.1195 4.03876 33.0688 4.86251C36.4855 7.80634 38.8051 11.82 39.6501 16.25C39.8813 17.4625 36.8751 18.7188 36.8751 20Z" fill="#F68F06"/>
    <path d="M31.8749 22.5H34.7874C34.4152 24.7306 33.5387 26.8469 32.2249 28.6875L30.1624 26.6313L26.6312 30.1625L28.6874 32.225C26.8468 33.5389 24.7305 34.4153 22.4999 34.7875V31.875H17.4999V34.7875C15.2693 34.4153 13.1531 33.5389 11.3124 32.225L13.3687 30.1625L9.8374 26.6313L7.7749 28.6875C6.46106 26.8469 5.58464 24.7306 5.2124 22.5H8.1249V17.5H5.2124C5.58464 15.2694 6.46106 13.1532 7.7749 11.3125L9.8374 13.3688L13.3687 9.83752L11.3124 7.77502C13.1531 6.46118 15.2693 5.58476 17.4999 5.21252V8.12502H22.4999V5.21252C24.7305 5.58476 26.8468 6.46118 28.6874 7.77502L26.6312 9.83752L30.1624 13.3688L32.2249 11.3125C33.5387 13.1532 34.4152 15.2694 34.7874 17.5H31.8749V22.5ZM39.9999 20C40.0013 21.2582 39.8841 22.5138 39.6499 23.75H37.4999C37.1687 23.749 36.8513 23.617 36.6171 23.3828C36.3829 23.1486 36.2509 22.8312 36.2499 22.5V17.5C36.2509 17.1688 36.3829 16.8514 36.6171 16.6172C36.8513 16.383 37.1687 16.251 37.4999 16.25H39.6499C39.8841 17.4863 40.0013 18.7418 39.9999 20Z" fill="#F4EEE9"/>
    <path d="M22.5 5.2125V8.125H17.5V5.2125C17.5188 5.20625 18.4875 5.075 18.5938 5.06875C18.7625 5.05 19.7 5 20 5C20.3 5 21.6187 5.0875 21.725 5.1C21.8437 5.1125 22.4813 5.20625 22.5 5.2125ZM13.3687 9.8375L9.8375 13.3687L7.775 11.3125C7.8 11.275 8.70625 10.125 8.84375 9.975C9.01875 9.775 9.20625 9.58125 9.39375 9.39375C9.58125 9.20625 9.775 9.01875 9.975 8.84375C10.125 8.70625 11.275 7.8 11.3125 7.775L13.3687 9.8375ZM8.125 17.5V22.5H5.2125C5.20625 22.4813 5.0375 21.0625 5.025 20.8875C5.00625 20.5937 5 20.3 5 20C5 19.7 5.00625 19.4062 5.025 19.1125C5.0375 18.9375 5.20625 17.5188 5.2125 17.5H8.125ZM13.3687 30.1625L11.3125 32.225C11.275 32.2 10.125 31.2937 9.975 31.1562C9.775 30.9812 9.58125 30.7938 9.39375 30.6063C9.20625 30.4188 9.01875 30.225 8.84375 30.025C8.70625 29.875 7.8 28.725 7.775 28.6875L9.8375 26.6313L13.3687 30.1625ZM22.5 31.875V34.7875C22.4813 34.7938 21.0625 34.9625 20.8875 34.975C20.5937 34.9937 20.3 35 20 35C19.7 35 19.4062 34.9937 19.1125 34.975C18.9375 34.9625 17.5188 34.7938 17.5 34.7875V31.875H22.5ZM32.225 28.6875C32.2 28.725 31.2937 29.875 31.1562 30.025C30.9812 30.225 30.7938 30.4188 30.6063 30.6063C30.4188 30.7938 30.225 30.9812 30.025 31.1562C29.875 31.2937 28.725 32.2 28.6875 32.225L26.6313 30.1625L30.1625 26.6313L32.225 28.6875ZM35 20C35 20.3 34.9937 20.5937 34.975 20.8875C34.9625 21.0625 34.7938 22.4813 34.7875 22.5H31.875V17.5H34.7875C34.7938 17.5188 34.8875 18.1562 34.9 18.275C34.9125 18.3812 35 19.7 35 20ZM32.225 11.3125L30.1625 13.3687L26.6313 9.8375L28.6875 7.775C28.725 7.8 29.875 8.70625 30.025 8.84375C30.225 9.01875 30.4188 9.20625 30.6063 9.39375C30.7938 9.58125 30.9812 9.775 31.1562 9.975C31.2937 10.125 32.2 11.275 32.225 11.3125Z" fill="#331F05"/>
    <path d="M20 33.125C27.2487 33.125 33.125 27.2487 33.125 20C33.125 12.7513 27.2487 6.875 20 6.875C12.7513 6.875 6.875 12.7513 6.875 20C6.875 27.2487 12.7513 33.125 20 33.125Z" fill="#331F05"/>
    <path d="M33.0687 4.86245L31.9999 6.7187C31.9177 6.86141 31.8081 6.98648 31.6775 7.08671C31.5468 7.18694 31.3976 7.26037 31.2385 7.30277C31.0793 7.34516 30.9134 7.3557 30.7502 7.33376C30.587 7.31183 30.4297 7.25786 30.2874 7.17495L25.9624 4.67495C25.82 4.59329 25.6951 4.48438 25.5948 4.35443C25.4944 4.22449 25.4207 4.07606 25.3778 3.91762C25.3348 3.75918 25.3235 3.59383 25.3445 3.43101C25.3654 3.2682 25.4182 3.1111 25.4999 2.9687L26.5812 1.1062C28.9626 1.93486 31.1644 3.20967 33.0687 4.86245ZM14.0374 4.67495L9.7124 7.17495C9.57011 7.25786 9.41283 7.31183 9.24962 7.33376C9.0864 7.3557 8.92046 7.34516 8.76132 7.30277C8.60219 7.26037 8.453 7.18694 8.32233 7.08671C8.19166 6.98648 8.08209 6.86141 7.9999 6.7187L6.93115 4.86245C8.83544 3.20967 11.0372 1.93486 13.4187 1.1062L14.4999 2.9687C14.5816 3.1111 14.6344 3.2682 14.6554 3.43101C14.6763 3.59383 14.665 3.75918 14.622 3.91762C14.5791 4.07606 14.5054 4.22449 14.405 4.35443C14.3047 4.48438 14.1798 4.59329 14.0374 4.67495Z" fill="#F4EEE9"/>
    <path d="M20 32.5C26.9036 32.5 32.5 26.9036 32.5 20C32.5 13.0964 26.9036 7.5 20 7.5C13.0964 7.5 7.5 13.0964 7.5 20C7.5 26.9036 13.0964 32.5 20 32.5Z" fill="#F4EEE9"/>
    <path d="M3.75 17.5V22.5C3.74901 22.8312 3.617 23.1486 3.38279 23.3828C3.14858 23.617 2.83121 23.749 2.5 23.75H0.349998C-0.116666 21.2718 -0.116666 18.7282 0.349998 16.25H2.5C2.83121 16.251 3.14858 16.383 3.38279 16.6172C3.617 16.8514 3.74901 17.1688 3.75 17.5ZM14.5 37.0312L13.4187 38.8937C11.0373 38.0651 8.83554 36.7903 6.93125 35.1375L8 33.2812C8.08218 33.1385 8.19176 33.0135 8.32243 32.9132C8.4531 32.813 8.60228 32.7396 8.76142 32.6972C8.92055 32.6548 9.08649 32.6443 9.24971 32.6662C9.41293 32.6881 9.5702 32.7421 9.7125 32.825L14.0375 35.325C14.1799 35.4067 14.3048 35.5156 14.4051 35.6455C14.5055 35.7755 14.5792 35.9239 14.6221 36.0823C14.6651 36.2408 14.6764 36.4061 14.6554 36.5689C14.6345 36.7318 14.5817 36.8888 14.5 37.0312ZM33.0687 35.1375C31.1645 36.7903 28.9627 38.0651 26.5812 38.8937L25.5 37.0312C25.4183 36.8888 25.3655 36.7318 25.3445 36.5689C25.3236 36.4061 25.3349 36.2408 25.3779 36.0823C25.4208 35.9239 25.4945 35.7755 25.5949 35.6455C25.6952 35.5156 25.8201 35.4067 25.9625 35.325L30.2875 32.825C30.4298 32.7421 30.5871 32.6881 30.7503 32.6662C30.9135 32.6443 31.0794 32.6548 31.2386 32.6972C31.3977 32.7396 31.5469 32.813 31.6776 32.9132C31.8082 33.0135 31.9178 33.1385 32 33.2812L33.0687 35.1375Z" fill="#F4EEE9"/>
    <path d="M40 20C39.9995 23.7153 38.9642 27.3571 37.0101 30.5171C35.0561 33.6771 32.2606 36.2305 28.937 37.891C25.6134 39.5515 21.893 40.2536 18.1928 39.9184C14.4925 39.5833 10.9588 38.2243 7.98755 35.9937C12.4882 37.851 17.5116 38.0033 22.1165 36.4221C26.7214 34.8409 30.5916 31.6347 33.0019 27.4044C35.4122 23.1741 36.1971 18.2101 35.2096 13.4425C34.2221 8.67489 31.5299 4.43104 27.6376 1.50623C31.296 3.02089 34.4231 5.58633 36.6236 8.87816C38.8241 12.17 39.9991 16.0404 40 20Z" fill="#F68F06" fill-opacity="0.125"/>
    <path d="M13.7499 22.0937C13.7421 21.2154 14.059 20.3651 14.6399 19.7063L15.7062 18.5187L19.9999 13.75L24.2943 18.5213L25.3605 19.7088C25.934 20.3716 26.2497 21.2188 26.2497 22.0953C26.2497 22.9718 25.934 23.819 25.3605 24.4819C25.0954 24.7921 24.7662 25.0413 24.3956 25.2121C24.025 25.3829 23.6217 25.4714 23.2137 25.4714C22.8056 25.4714 22.4023 25.3829 22.0317 25.2121C21.6611 25.0413 21.3319 24.7921 21.0668 24.4819L19.9999 23.2944L18.9337 24.4819C18.6684 24.7919 18.3391 25.0407 17.9685 25.2114C17.5979 25.382 17.1948 25.4704 16.7868 25.4704C16.3788 25.4704 15.9756 25.382 15.605 25.2114C15.2344 25.0407 14.9052 24.7919 14.6399 24.4819C14.0589 23.8228 13.7419 22.9723 13.7499 22.0937Z" fill="#F68F06"/>
    <path d="M19.8044 22.9293H20.1951L21.3669 26.2499H18.6326L19.8044 22.9293Z" fill="#F68F06"/>
  </g>
  <defs>
    <clipPath id="clip0_410_5041">
      <rect width="40" height="40" fill="white"/>
    </clipPath>
  </defs>
</svg>