<svg xmlns="http://www.w3.org/2000/svg" width="70" height="70" viewBox="0 0 70 70" fill="none">
  <circle cx="35" cy="35" r="33" fill="#341939" stroke="#91469F" stroke-width="4"/>
  <path d="M46.8458 47.9357C46.2615 48.536 45.4689 48.8732 44.6425 48.8732C43.8162 48.8732 43.0236 48.536 42.4393 47.9357L35.5556 39.8527L28.6718 47.933C28.3833 48.2342 28.0397 48.4738 27.6606 48.6379C27.2816 48.802 26.8746 48.8874 26.4633 48.8891C26.052 48.8908 25.6444 48.8088 25.264 48.6479C24.8837 48.487 24.5381 48.2503 24.2473 47.9515C23.9564 47.6527 23.726 47.2977 23.5694 46.9069C23.4128 46.5162 23.333 46.0975 23.3347 45.6749C23.3363 45.2523 23.4194 44.8343 23.5792 44.4448C23.7389 44.0554 23.9721 43.7024 24.2653 43.406L31.4269 35.0029L24.2627 26.5944C23.9695 26.2981 23.7363 25.945 23.5766 25.5556C23.4168 25.1662 23.3337 24.7481 23.3321 24.3255C23.3304 23.903 23.4102 23.4842 23.5668 23.0935C23.7234 22.7028 23.9538 22.3477 24.2447 22.0489C24.5355 21.7501 24.8811 21.5134 25.2614 21.3525C25.6418 21.1916 26.0494 21.1096 26.4607 21.1114C26.872 21.1131 27.279 21.1984 27.658 21.3625C28.0371 21.5266 28.3807 21.7662 28.6692 22.0674L35.5556 30.1531L42.4393 22.0674C42.7278 21.7662 43.0714 21.5266 43.4505 21.3625C43.8295 21.1984 44.2365 21.1131 44.6478 21.1114C45.0591 21.1096 45.4667 21.1916 45.8471 21.3525C46.2274 21.5134 46.573 21.7501 46.8638 22.0489C47.1547 22.3477 47.3851 22.7028 47.5417 23.0935C47.6983 23.4842 47.7781 23.903 47.7764 24.3255C47.7748 24.7481 47.6917 25.1662 47.5319 25.5556C47.3722 25.945 47.139 26.2981 46.8458 26.5944L39.6842 35.0029L46.8458 43.406C47.1355 43.7033 47.3654 44.0563 47.5222 44.445C47.679 44.8336 47.7597 45.2501 47.7597 45.6708C47.7597 46.0915 47.679 46.5081 47.5222 46.8967C47.3654 47.2853 47.1355 47.6384 46.8458 47.9357Z" fill="white"/>
</svg>