<svg xmlns="http://www.w3.org/2000/svg" width="25" height="25" viewBox="0 0 25 25" fill="none">
  <mask id="mask0_4_3054" style="mask-type:alpha" maskUnits="userSpaceOnUse" x="0" y="-1" width="25" height="26">
    <rect width="24" height="24" transform="matrix(0.00786814 0.999969 0.999969 -0.00786814 0 0.188477)" fill="#D9D9D9"/>
  </mask>
  <g mask="url(#mask0_4_3054)">
    <path d="M22.117 15.0153C21.3003 12.905 19.9704 11.2195 18.1271 9.95901C16.2837 8.69847 14.2288 8.07712 11.9622 8.09496C10.4456 8.10689 9.01048 8.41819 7.65691 9.02886C6.30334 9.63953 5.11423 10.4989 4.08958 11.607L4.06244 8.15712L2.0625 8.17285L2.11758 15.1726L9.11736 15.1176L9.10162 13.1176L5.40174 13.1467C6.24424 12.1901 7.23424 11.4448 8.37174 10.9108C9.50924 10.3768 10.7113 10.1049 11.9779 10.0949C13.6779 10.0815 15.2439 10.5192 16.6759 11.408C18.1079 12.2967 19.1967 13.5049 19.942 15.0324L22.117 15.0153Z" fill="white"/>
  </g>
</svg>